<svg width="52" height="32" viewBox="0 0 52 32" fill="none" xmlns="http://www.w3.org/2000/svg">
<path d="M10.6455 6.25224C19.1256 -2.08408 32.8745 -2.08408 41.3546 6.25224L42.3752 7.25553C42.7992 7.67235 42.7992 8.34814 42.3752 8.76495L38.8839 12.197C38.6719 12.4054 38.3282 12.4054 38.1162 12.197L36.7117 10.8164C30.7958 5.00074 21.2042 5.00074 15.2883 10.8164L13.7843 12.2949C13.5723 12.5033 13.2285 12.5033 13.0165 12.2949L9.52529 8.86287C9.10128 8.44605 9.10128 7.77026 9.52529 7.35344L10.6455 6.25224ZM48.5748 13.3501L51.682 16.4046C52.106 16.8215 52.106 17.4972 51.682 17.9141L37.6714 31.6874C37.2474 32.1042 36.5599 32.1042 36.1359 31.6874C36.1359 31.6874 36.1359 31.6874 36.1359 31.6874L26.192 21.9121C26.086 21.8079 25.9142 21.8079 25.8082 21.9121C25.8082 21.9121 25.8082 21.9121 25.8082 21.9121L15.8645 31.6874C15.4405 32.1042 14.753 32.1042 14.329 31.6874C14.329 31.6874 14.329 31.6874 14.329 31.6874L0.318003 17.9139C-0.106001 17.4971 -0.106001 16.8213 0.318003 16.4045L3.42522 13.3499C3.84922 12.9331 4.53667 12.9331 4.96067 13.3499L14.9047 23.1254C15.0107 23.2296 15.1826 23.2296 15.2886 23.1254C15.2886 23.1254 15.2886 23.1254 15.2886 23.1254L25.2321 13.3499C25.6561 12.9331 26.3436 12.9331 26.7676 13.3499C26.7676 13.3499 26.7676 13.3499 26.7676 13.3499L36.7116 23.1254C36.8176 23.2296 36.9895 23.2296 37.0955 23.1254L47.0393 13.3501C47.4633 12.9333 48.1508 12.9333 48.5748 13.3501Z" fill="#419BF9"/>
</svg>
